<?xml version="1.0" encoding="iso-8859-1"?>
<!-- Generator: Adobe Illustrator 19.0.0, SVG Export Plug-In . SVG Version: 6.00 Build 0)  -->
<svg version="1.1" id="Layer_1" xmlns="http://www.w3.org/2000/svg" xmlns:xlink="http://www.w3.org/1999/xlink" x="0px" y="0px"
	 viewBox="0 0 512 512" style="enable-background:new 0 0 512 512;" xml:space="preserve">
<circle style="fill:#77AAD4;" cx="448.11" cy="288.018" r="32.019"/>
<circle style="fill:#1D71B8;" cx="199.963" cy="256" r="168.101"/>
<path style="fill:#77AAD4;" d="M77.86,373.644c0,0,110.691,35.014,242.178,0C320.038,373.644,210.708,487.086,77.86,373.644z"/>
<path style="fill:#F9B233;" d="M368.066,247.995c0-92.838-75.261-160.095-168.099-160.095S31.868,155.157,31.868,247.995
	C31.868,247.995,183.422,336.531,368.066,247.995"/>
<path style="fill:#FAC15C;" d="M87.901,135.929c0,0,21.328-31.079,40.024-24.015c20.843,7.876,101.937,33.171,144.086-8.005
	c0,0,35.519,7.435,48.029,40.024C320.038,143.934,201.006,224.752,87.901,135.929z"/>
<path style="fill:#1D1D1B;" d="M512,245.989c0-41.365-80.392-66.137-158.607-76.039c-30.185-53.609-87.642-89.904-153.426-89.904
	c-79.379,0-146.637,52.841-168.477,125.191C10.592,217.292,0,230.984,0,245.989c0,13.619,8.817,26.218,26.162,37.475
	c13.226,84.021,86.125,148.488,173.805,148.488c74.205,0,137.825-46.174,163.645-111.298c18.506-2.629,35.907-5.935,51.817-9.841
	c7.214,10.314,19.171,17.078,32.685,17.078c21.985,0,39.871-17.887,39.871-39.872c0-1.931-0.146-3.828-0.413-5.686
	C503.785,271.366,512,259.153,512,245.989z M122.677,115.665c14.795,12.286,43.971,20.111,77.29,20.111
	c33.323,0,62.495-7.827,77.289-20.112c12.844,7.102,24.613,15.915,35,26.13c-17.537,15.637-59.237,26.306-104.285,26.306
	c-31.097,0-60.214-4.796-81.987-13.506c-15.256-6.103-25.553-13.763-28.977-21.284C104.947,126.636,113.539,120.717,122.677,115.665
	z M260.977,107.831c-12.327,6.765-33.93,12.24-61.01,12.24c-27.074,0-48.68-5.476-61.009-12.241
	c18.815-7.775,39.417-12.078,61.009-12.078C221.558,95.753,242.161,100.056,260.977,107.831z M85.185,144.301
	c6.274,9.616,18.165,18.155,34.967,24.875c23.583,9.434,54.772,14.629,87.82,14.629c50.094,0,94.102-11.823,114.927-30.479
	c7.897,9.439,14.727,19.796,20.308,30.888l-0.037,0.327c0.071,0.008,0.141,0.017,0.211,0.024
	c8.073,16.141,13.498,33.822,15.707,52.478c-23.924,25.555-88.109,43.124-159.12,43.124c-71.013,0-135.198-17.569-159.12-43.124
	C45.093,201.183,61.224,168.917,85.185,144.301z M320.356,361.638c-30.822,13.349-74.545,20.989-120.389,20.989
	c-45.843,0-89.569-7.64-120.389-20.989c-16.934-19.275-29.321-42.632-35.476-68.386c46.549,21.589,125.075,34.639,211.899,34.639
	c30.988,0,61.018-1.671,89.536-4.934C339.015,337.075,330.502,350.09,320.356,361.638z M39.731,256.89
	c31.778,23.785,92.504,38.982,160.236,38.982c67.731,0,128.46-15.197,160.236-38.982c-0.094,17.258-2.932,33.877-8.096,49.447
	c-30.385,3.866-62.661,5.849-96.106,5.849c-90.293,0-173.643-14.919-215.272-38.261C40.102,268.328,39.763,262.646,39.731,256.89z
	 M15.706,245.989c0-5.788,3.664-11.917,10.541-17.96c-1.462,9.112-2.232,18.453-2.232,27.97c0,2.02,0.047,4.029,0.114,6.033
	C19.312,257.333,15.706,251.857,15.706,245.989z M109.03,387.869c27.114,6.765,58.589,10.464,90.937,10.464
	c32.349,0,63.823-3.7,90.937-10.465c-25.853,17.884-57.191,28.379-90.937,28.379S134.884,405.752,109.03,387.869z M448.114,312.186
	c-13.326,0-24.167-10.841-24.167-24.167c0-13.326,10.841-24.167,24.167-24.167c13.326,0,24.166,10.841,24.166,24.167
	S461.44,312.186,448.114,312.186z M481.993,267.028c-7.042-11.324-19.592-18.881-33.879-18.881
	c-21.986,0-39.872,17.887-39.872,39.872c0,2.801,0.293,5.535,0.846,8.174c-12.402,2.962-25.738,5.551-39.806,7.739
	c4.321-15.244,6.637-31.323,6.637-47.932c0-24.512-5.044-47.865-14.14-69.086c88.399,12.574,134.516,38.555,134.516,59.076
	C496.294,254.084,489.436,261.434,481.993,267.028z"/>
<g>
</g>
<g>
</g>
<g>
</g>
<g>
</g>
<g>
</g>
<g>
</g>
<g>
</g>
<g>
</g>
<g>
</g>
<g>
</g>
<g>
</g>
<g>
</g>
<g>
</g>
<g>
</g>
<g>
</g>
</svg>
