<?xml version="1.0" encoding="iso-8859-1"?>
<!-- Generator: Adobe Illustrator 19.0.0, SVG Export Plug-In . SVG Version: 6.00 Build 0)  -->
<svg xmlns="http://www.w3.org/2000/svg" xmlns:xlink="http://www.w3.org/1999/xlink" version="1.1" id="Capa_1" x="0px" y="0px" viewBox="0 0 505 505" style="enable-background:new 0 0 505 505;" xml:space="preserve" width="512" height="512">
<g>
	<rect x="7.5" y="92.278" style="fill:#5A9DEE;" width="490" height="335.107"/>
	<polyline style="fill:#FFA317;" points="99.228,367.991 44.503,367.991 44.503,151.673 460.497,151.673 460.497,367.991    121.643,367.991  "/>
	<rect x="130.503" y="427.385" style="fill:#B1DCEE;" width="243.994" height="69.456"/>
	<g>
		<path style="fill:#214245;" d="M505,434.885V84.778H270.606l73.513-73.513L333.513,0.658L252.501,81.67L171.49,0.658    l-10.606,10.606l73.513,73.513H0v350.107h123.003v54.456H66.894v15h56.109h258.994h56.109v-15h-56.109v-54.456H505z M15,419.885    V99.778h475v320.107H381.997H123.003H15z M366.997,489.342H138.003v-54.456h228.994V489.342z"/>
		<polygon style="fill:#214245;" points="467.997,144.173 37.003,144.173 37.003,375.491 99.228,375.491 99.228,360.491     52.003,360.491 52.003,159.173 452.997,159.173 452.997,360.491 121.643,360.491 121.643,375.491 467.997,375.491   "/>
	</g>
</g>















</svg>
